<svg width="36" height="36" viewBox="0 0 36 36" xmlns="http://www.w3.org/2000/svg"><title>Product Icon/On Light/2</title><g fill="none" fill-rule="evenodd"><path d="M0 0h36v36H0z"/><g fill-rule="nonzero" fill="#000"><path d="M4.754 7.921a1.025 1.025 0 0 0-.38.155c-.24.156-.372.388-.372.835v2.132h-1V8.911c0-1.814 1.648-1.984 1.648-1.984l25.064-3.418s.69-.17 1.523.446c.832.615.764 1.71.764 1.71l.003 8.71-1-.094-.003-8.61c-.001-.127.003-.608-.36-.913-.364-.305-.578-.272-.787-.258l-25.1 3.421z" opacity=".7"/><path d="M4.003 27.34c0 .686.29 1.12.831 1.431.362.209.739.31.941.334L29.541 31.7s.47-.037.72-.158c.248-.121.246-.15.337-.255.092-.106.317-.441.373-.624.056-.183.032-.136.032-.137 0-.001-.002 7.91-.003-.074-.002-7.984 0-15.968 0-15.968s-.078-.232-.433-.435c-.355-.204-.552-.237-.765-.245-.212-.008-24.384-2.485-24.384-2.485-.37-.041-.88-.14-1.415-.33V27.34zm-1-18.603c0 1.306 2.525 1.587 2.525 1.587l24.376 2.484s.764.017 1.43.562c.666.545.666 1.113.666 1.113V30.45s.075.656-.646 1.49c-.72.833-1.876.756-1.876.756L5.667 30.099s-2.664-.31-2.664-2.759V8.737z"/><path opacity=".35" d="M6.358 11.416l24.645-3.324V7.073L6.191 10.43z"/><path d="M11.327 27.072c.048-.097.154-.282.319-.524a7.47 7.47 0 0 1 1.015-1.2c1.228-1.176 2.74-1.83 4.569-1.713 1.723.112 3.235 1.053 4.527 2.571a11.95 11.95 0 0 1 1.686 2.63l.92-.394a11.861 11.861 0 0 0-.468-.912 12.938 12.938 0 0 0-1.377-1.972c-1.451-1.706-3.191-2.79-5.224-2.92-2.132-.138-3.908.63-5.324 1.987a8.496 8.496 0 0 0-1.151 1.361 5.81 5.81 0 0 0-.387.641l.895.445zm6.049-5.835a2.375 2.375 0 1 0 0-4.75 2.375 2.375 0 0 0 0 4.75zm0 1a3.375 3.375 0 1 1 0-6.75 3.375 3.375 0 0 1 0 6.75z"/></g></g></svg>