<svg width="36" height="36" viewBox="0 0 36 36" xmlns="http://www.w3.org/2000/svg"><title>Product Icon/On Light/1</title><g fill="none" fill-rule="evenodd"><path d="M0 0h36v36H0z"/><g fill="#000"><path fill-rule="nonzero" opacity=".7" d="M6 6h27v18h-1v1h2V5H5v4h1z"/><path d="M3 30h26V12H3v18zM2 11h28v20H2V11z" fill-rule="nonzero"/><path d="M19.992 24H10v-1h10.992l.008-.009.796.796-3.182 3.182-.796-.796L19.992 24zm-7.987-6H22v1H11.005l-.006.006-.795-.795 3.182-3.182.795.795L12.005 18z"/></g></g></svg>