<svg width="32" height="26" viewBox="0 0 32 26" xmlns="http://www.w3.org/2000/svg"><title>Product Icon/On Dark/1</title><g fill="none" fill-rule="evenodd"><path d="M-2-5h36v36H-2z"/><g fill="#FFF"><path fill-rule="nonzero" opacity=".7" d="M4 1h27v18h-1v1h2V0H3v4h1z"/><path d="M1 25h26V7H1v18zM0 6h28v20H0V6z" fill-rule="nonzero"/><path d="M17.992 19H8v-1h10.992l.008-.009.796.796-3.182 3.182-.796-.796L17.992 19zm-7.987-6H20v1H9.005L9 14.006l-.795-.795 3.182-3.182.795.795L10.005 13z"/></g></g></svg>