<svg width="36" height="36" viewBox="0 0 36 36" xmlns="http://www.w3.org/2000/svg"><title>Product Icon/On Light/4</title><g fill="none" fill-rule="evenodd"><path d="M0 0h36v36H0z"/><g fill-rule="nonzero" fill="#000"><path d="M4.6 18c0 7.4 6 13.4 13.4 13.4a13.39 13.39 0 0 0 11.277-6.157L17 18.596V4.636C10.066 5.149 4.6 10.937 4.6 18zM18 32.4c-7.953 0-14.4-6.447-14.4-14.4S10.047 3.6 18 3.6V18l12.666 6.857C28.228 29.35 23.47 32.4 18 32.4z"/><path d="M32.848 12.374a13.41 13.41 0 0 0-11.844-9.529v11.746l11.844-2.217zm-12.844 3.421V1.808c6.907 0 12.679 4.863 14.077 11.353l-14.077 2.634zm12.302 6.755c.112-.274.224-.566.332-.875.544-1.547.872-3.119.872-4.591 0-.509-.028-1.014-.084-1.514L22.61 17.375l9.696 5.174zM20.002 17l14.258-2.603c.164.87.465 2.148.061 4.826-.403 2.678-1.54 4.717-1.54 4.717L20.002 17z" opacity=".7"/></g></g></svg>